<svg width="512" height="209" viewBox="0 0 512 209" fill="none" xmlns="http://www.w3.org/2000/svg">
<g clip-path="url(#clip0_1436_298)">
<mask id="mask0_1436_298" style="mask-type:luminance" maskUnits="userSpaceOnUse" x="0" y="0" width="512" height="209">
<path d="M512 0H0V208.126H512V0Z" fill="white"/>
</mask>
<g mask="url(#mask0_1436_298)">
<path d="M117.436 207.036V154.604L118.529 153.51H129.452L130.545 154.604V207.036L129.452 208.13H118.529L117.436 207.036Z" fill="white"/>
<path d="M117.436 53.5225V1.09339L118.529 0H129.452L130.545 1.09339V53.5225L129.452 54.6159H118.529L117.436 53.5225Z" fill="white"/>
<path d="M69.9535 169.238H68.409L60.6865 161.512V159.967L78.7197 141.938L86.8972 141.942L87.9944 143.031V151.209L69.9535 169.238Z" fill="white"/>
<path d="M69.9467 38.8916H68.4022L60.6797 46.618V48.1625L78.7129 66.1919L86.8904 66.1881L87.9876 65.0985V56.9211L69.9467 38.8916Z" fill="white"/>
<path d="M1.09339 97.5105H75.3711L76.4645 98.6039V109.526L75.3711 110.62H1.09339L0 109.526V98.6039L1.09339 97.5105Z" fill="white"/>
<path d="M440.999 97.5105H510.91L512.004 98.6039V109.526L510.91 110.62H436.633L435.539 109.526L439.905 98.6039L440.999 97.5105Z" fill="white"/>
<path d="M212.056 108.727L210.963 109.821H177.079L175.986 110.914C175.986 113.101 178.173 119.657 186.916 119.657C190.196 119.657 193.472 118.564 194.566 116.377L195.659 115.284H208.776L209.869 116.377C208.776 122.934 203.313 132.774 186.916 132.774C168.336 132.774 159.589 119.657 159.589 104.357C159.589 89.0577 168.332 75.9409 185.822 75.9409C203.313 75.9409 212.056 89.0577 212.056 104.357V108.731V108.727ZM195.659 97.7972C195.659 96.7038 194.566 89.0539 185.822 89.0539C177.079 89.0539 175.986 96.7038 175.986 97.7972L177.079 98.8906H194.566L195.659 97.7972Z" fill="white"/>
<path d="M242.66 115.284C242.66 117.47 243.753 118.564 245.94 118.564H255.776L256.87 119.657V130.587L255.776 131.681H245.94C236.103 131.681 227.36 127.307 227.36 115.284V91.2369L226.266 90.1435H218.617L217.523 89.0501V78.12L218.617 77.0266H226.266L227.36 75.9333V66.0966L228.453 65.0032H241.57L242.663 66.0966V75.9333L243.757 77.0266H255.78L256.874 78.12V89.0501L255.78 90.1435H243.757L242.663 91.2369V115.284H242.66Z" fill="white"/>
<path d="M283.1 131.681H269.983L268.889 130.587V56.2636L269.983 55.1702H283.1L284.193 56.2636V130.587L283.1 131.681Z" fill="white"/>
<path d="M312.61 68.2871H299.493L298.399 67.1937V56.2636L299.493 55.1702H312.61L313.703 56.2636V67.1937L312.61 68.2871ZM312.61 131.681H299.493L298.399 130.587V78.1237L299.493 77.0304H312.61L313.703 78.1237V130.587L312.61 131.681Z" fill="white"/>
<path d="M363.98 56.2636V67.1937L362.886 68.2871H353.05C350.863 68.2871 349.769 69.3805 349.769 71.5672V75.9408L350.863 77.0342H361.793L362.886 78.1276V89.0576L361.793 90.151H350.863L349.769 91.2444V130.591L348.676 131.684H335.559L334.466 130.591V91.2444L333.372 90.151H325.723L324.629 89.0576V78.1276L325.723 77.0342H333.372L334.466 75.9408V71.5672C334.466 59.5438 343.209 55.1702 353.046 55.1702H362.882L363.976 56.2636H363.98Z" fill="white"/>
<path d="M404.42 132.774C400.046 143.704 395.677 150.261 380.373 150.261H374.906L373.813 149.167V138.237L374.906 137.144H380.373C385.836 137.144 386.929 136.05 388.023 132.77V131.677L370.536 89.0501V78.12L371.63 77.0266H381.466L382.56 78.12L395.677 115.284H396.77L409.887 78.12L410.98 77.0266H420.817L421.91 78.12V89.0501L404.424 132.77L404.42 132.774Z" fill="white"/>
<path d="M135.454 131.681L134.361 130.587L134.368 98.9171C134.368 93.454 132.22 89.2181 125.625 89.0805C122.234 88.9925 118.354 89.0728 114.209 89.2487L113.59 89.8833L113.598 130.587L112.504 131.681H99.3913L98.2979 130.587V77.5387L99.3913 76.4453L128.901 76.1777C143.685 76.1777 149.668 86.3355 149.668 97.8008V130.587L148.575 131.681H135.454Z" fill="white"/>
</g>
</g>
<defs>
<clipPath id="clip0_1436_298">
<rect width="512" height="209" fill="white"/>
</clipPath>
</defs>
</svg>
